<mxfile host="app.diagrams.net" agent="Mozilla/5.0 (X11; Linux x86_64; rv:124.0) Gecko/20100101 Firefox/124.0" version="24.7.12">
  <diagram id="C5RBs43oDa-KdzZeNtuy" name="Page-1">
    <mxGraphModel dx="1175" dy="613" grid="1" gridSize="10" guides="1" tooltips="1" connect="1" arrows="1" fold="1" page="1" pageScale="1" pageWidth="827" pageHeight="1169" math="0" shadow="0">
      <root>
        <mxCell id="WIyWlLk6GJQsqaUBKTNV-0" />
        <mxCell id="WIyWlLk6GJQsqaUBKTNV-1" parent="WIyWlLk6GJQsqaUBKTNV-0" />
        <mxCell id="TlmRonFfV4HU9jNhe1HI-10" style="edgeStyle=orthogonalEdgeStyle;rounded=0;orthogonalLoop=1;jettySize=auto;html=1;exitX=0.5;exitY=1;exitDx=0;exitDy=0;" edge="1" parent="WIyWlLk6GJQsqaUBKTNV-1" source="TlmRonFfV4HU9jNhe1HI-0" target="TlmRonFfV4HU9jNhe1HI-1">
          <mxGeometry relative="1" as="geometry" />
        </mxCell>
        <mxCell id="TlmRonFfV4HU9jNhe1HI-0" value="&lt;h3&gt;&lt;font&gt;Start&lt;/font&gt;&lt;/h3&gt;" style="ellipse;whiteSpace=wrap;html=1;fontFamily=Verdana;" vertex="1" parent="WIyWlLk6GJQsqaUBKTNV-1">
          <mxGeometry x="232.5" y="100" width="75" height="50" as="geometry" />
        </mxCell>
        <mxCell id="TlmRonFfV4HU9jNhe1HI-11" style="edgeStyle=orthogonalEdgeStyle;rounded=0;orthogonalLoop=1;jettySize=auto;html=1;exitX=0.5;exitY=1;exitDx=0;exitDy=0;entryX=0.5;entryY=0;entryDx=0;entryDy=0;" edge="1" parent="WIyWlLk6GJQsqaUBKTNV-1" source="TlmRonFfV4HU9jNhe1HI-1" target="TlmRonFfV4HU9jNhe1HI-2">
          <mxGeometry relative="1" as="geometry" />
        </mxCell>
        <mxCell id="TlmRonFfV4HU9jNhe1HI-1" value="&lt;pre&gt;&lt;font face=&quot;Verdana&quot;&gt;Input&lt;/font&gt; isFragile, isUrgent&lt;/pre&gt;" style="shape=parallelogram;perimeter=parallelogramPerimeter;whiteSpace=wrap;html=1;fixedSize=1;fontFamily=Verdana;" vertex="1" parent="WIyWlLk6GJQsqaUBKTNV-1">
          <mxGeometry x="155.62" y="180" width="228.75" height="50" as="geometry" />
        </mxCell>
        <mxCell id="TlmRonFfV4HU9jNhe1HI-12" style="edgeStyle=orthogonalEdgeStyle;rounded=0;orthogonalLoop=1;jettySize=auto;html=1;exitX=0.5;exitY=1;exitDx=0;exitDy=0;entryX=0.5;entryY=0;entryDx=0;entryDy=0;" edge="1" parent="WIyWlLk6GJQsqaUBKTNV-1" source="TlmRonFfV4HU9jNhe1HI-2" target="TlmRonFfV4HU9jNhe1HI-4">
          <mxGeometry relative="1" as="geometry" />
        </mxCell>
        <mxCell id="TlmRonFfV4HU9jNhe1HI-15" style="edgeStyle=orthogonalEdgeStyle;rounded=0;orthogonalLoop=1;jettySize=auto;html=1;" edge="1" parent="WIyWlLk6GJQsqaUBKTNV-1" source="TlmRonFfV4HU9jNhe1HI-2" target="TlmRonFfV4HU9jNhe1HI-3">
          <mxGeometry relative="1" as="geometry" />
        </mxCell>
        <mxCell id="TlmRonFfV4HU9jNhe1HI-2" value="&lt;pre&gt;if isUrgent&lt;/pre&gt;" style="rhombus;whiteSpace=wrap;html=1;fontFamily=Verdana;" vertex="1" parent="WIyWlLk6GJQsqaUBKTNV-1">
          <mxGeometry x="208.13" y="257.5" width="123.75" height="80" as="geometry" />
        </mxCell>
        <mxCell id="TlmRonFfV4HU9jNhe1HI-19" style="edgeStyle=orthogonalEdgeStyle;rounded=0;orthogonalLoop=1;jettySize=auto;html=1;exitX=0.5;exitY=1;exitDx=0;exitDy=0;" edge="1" parent="WIyWlLk6GJQsqaUBKTNV-1" source="TlmRonFfV4HU9jNhe1HI-3">
          <mxGeometry relative="1" as="geometry">
            <mxPoint x="270" y="450" as="targetPoint" />
            <Array as="points">
              <mxPoint x="515" y="450" />
            </Array>
          </mxGeometry>
        </mxCell>
        <mxCell id="TlmRonFfV4HU9jNhe1HI-3" value="Output &quot;Package &lt;b&gt;&lt;u&gt;cannot&lt;/u&gt;&lt;/b&gt; be delayed&quot;" style="shape=parallelogram;perimeter=parallelogramPerimeter;whiteSpace=wrap;html=1;fixedSize=1;fontFamily=Verdana;" vertex="1" parent="WIyWlLk6GJQsqaUBKTNV-1">
          <mxGeometry x="380" y="275" width="270" height="45" as="geometry" />
        </mxCell>
        <mxCell id="TlmRonFfV4HU9jNhe1HI-13" style="edgeStyle=orthogonalEdgeStyle;rounded=0;orthogonalLoop=1;jettySize=auto;html=1;exitX=0.5;exitY=1;exitDx=0;exitDy=0;entryX=0.5;entryY=0;entryDx=0;entryDy=0;" edge="1" parent="WIyWlLk6GJQsqaUBKTNV-1" source="TlmRonFfV4HU9jNhe1HI-4" target="TlmRonFfV4HU9jNhe1HI-5">
          <mxGeometry relative="1" as="geometry" />
        </mxCell>
        <mxCell id="TlmRonFfV4HU9jNhe1HI-4" value="Output &quot;Package &lt;b&gt;&lt;u&gt;can&lt;/u&gt;&lt;/b&gt; be delayed&quot;" style="shape=parallelogram;perimeter=parallelogramPerimeter;whiteSpace=wrap;html=1;fixedSize=1;fontFamily=Verdana;" vertex="1" parent="WIyWlLk6GJQsqaUBKTNV-1">
          <mxGeometry x="150" y="380" width="240" height="40" as="geometry" />
        </mxCell>
        <mxCell id="TlmRonFfV4HU9jNhe1HI-14" style="edgeStyle=orthogonalEdgeStyle;rounded=0;orthogonalLoop=1;jettySize=auto;html=1;exitX=0.5;exitY=1;exitDx=0;exitDy=0;entryX=0.5;entryY=0;entryDx=0;entryDy=0;" edge="1" parent="WIyWlLk6GJQsqaUBKTNV-1" source="TlmRonFfV4HU9jNhe1HI-5" target="TlmRonFfV4HU9jNhe1HI-7">
          <mxGeometry relative="1" as="geometry" />
        </mxCell>
        <mxCell id="TlmRonFfV4HU9jNhe1HI-16" style="edgeStyle=orthogonalEdgeStyle;rounded=0;orthogonalLoop=1;jettySize=auto;html=1;exitX=1;exitY=0.5;exitDx=0;exitDy=0;" edge="1" parent="WIyWlLk6GJQsqaUBKTNV-1" source="TlmRonFfV4HU9jNhe1HI-5" target="TlmRonFfV4HU9jNhe1HI-6">
          <mxGeometry relative="1" as="geometry" />
        </mxCell>
        <mxCell id="TlmRonFfV4HU9jNhe1HI-5" value="&lt;pre&gt;if isFragile&lt;/pre&gt;" style="rhombus;whiteSpace=wrap;html=1;fontFamily=Verdana;" vertex="1" parent="WIyWlLk6GJQsqaUBKTNV-1">
          <mxGeometry x="208.12" y="470" width="123.75" height="80" as="geometry" />
        </mxCell>
        <mxCell id="TlmRonFfV4HU9jNhe1HI-18" style="edgeStyle=orthogonalEdgeStyle;rounded=0;orthogonalLoop=1;jettySize=auto;html=1;exitX=0.5;exitY=1;exitDx=0;exitDy=0;entryX=1;entryY=0.5;entryDx=0;entryDy=0;" edge="1" parent="WIyWlLk6GJQsqaUBKTNV-1" source="TlmRonFfV4HU9jNhe1HI-6" target="TlmRonFfV4HU9jNhe1HI-8">
          <mxGeometry relative="1" as="geometry" />
        </mxCell>
        <mxCell id="TlmRonFfV4HU9jNhe1HI-6" value="Output &quot;Package is &lt;b&gt;&lt;u&gt;not&lt;/u&gt;&lt;/b&gt; fragile&quot;" style="shape=parallelogram;perimeter=parallelogramPerimeter;whiteSpace=wrap;html=1;fixedSize=1;fontFamily=Verdana;" vertex="1" parent="WIyWlLk6GJQsqaUBKTNV-1">
          <mxGeometry x="380" y="490" width="270" height="40" as="geometry" />
        </mxCell>
        <mxCell id="TlmRonFfV4HU9jNhe1HI-17" style="edgeStyle=orthogonalEdgeStyle;rounded=0;orthogonalLoop=1;jettySize=auto;html=1;exitX=0.5;exitY=1;exitDx=0;exitDy=0;entryX=0;entryY=0.5;entryDx=0;entryDy=0;" edge="1" parent="WIyWlLk6GJQsqaUBKTNV-1" source="TlmRonFfV4HU9jNhe1HI-7" target="TlmRonFfV4HU9jNhe1HI-8">
          <mxGeometry relative="1" as="geometry" />
        </mxCell>
        <mxCell id="TlmRonFfV4HU9jNhe1HI-7" value="Output &quot;Package must be handled &lt;b&gt;&lt;u&gt;carefully&lt;/u&gt;&lt;/b&gt;&quot;" style="shape=parallelogram;perimeter=parallelogramPerimeter;whiteSpace=wrap;html=1;fixedSize=1;fontFamily=Verdana;" vertex="1" parent="WIyWlLk6GJQsqaUBKTNV-1">
          <mxGeometry x="113.75" y="600" width="312.5" height="50" as="geometry" />
        </mxCell>
        <mxCell id="TlmRonFfV4HU9jNhe1HI-8" value="&lt;h3&gt;End&lt;/h3&gt;" style="ellipse;whiteSpace=wrap;html=1;fontFamily=Verdana;" vertex="1" parent="WIyWlLk6GJQsqaUBKTNV-1">
          <mxGeometry x="359.38" y="690" width="75" height="50" as="geometry" />
        </mxCell>
        <mxCell id="TlmRonFfV4HU9jNhe1HI-20" value="No" style="text;html=1;align=center;verticalAlign=middle;whiteSpace=wrap;rounded=0;fontFamily=Verdana;" vertex="1" parent="WIyWlLk6GJQsqaUBKTNV-1">
          <mxGeometry x="220" y="337.5" width="60" height="30" as="geometry" />
        </mxCell>
        <mxCell id="TlmRonFfV4HU9jNhe1HI-21" value="Yes" style="text;html=1;align=center;verticalAlign=middle;whiteSpace=wrap;rounded=0;fontFamily=Verdana;" vertex="1" parent="WIyWlLk6GJQsqaUBKTNV-1">
          <mxGeometry x="330" y="270" width="60" height="30" as="geometry" />
        </mxCell>
        <mxCell id="TlmRonFfV4HU9jNhe1HI-22" value="Yes" style="text;html=1;align=center;verticalAlign=middle;whiteSpace=wrap;rounded=0;fontFamily=Verdana;" vertex="1" parent="WIyWlLk6GJQsqaUBKTNV-1">
          <mxGeometry x="220" y="555" width="60" height="30" as="geometry" />
        </mxCell>
        <mxCell id="TlmRonFfV4HU9jNhe1HI-23" value="No" style="text;html=1;align=center;verticalAlign=middle;whiteSpace=wrap;rounded=0;fontFamily=Verdana;" vertex="1" parent="WIyWlLk6GJQsqaUBKTNV-1">
          <mxGeometry x="330" y="480" width="60" height="30" as="geometry" />
        </mxCell>
      </root>
    </mxGraphModel>
  </diagram>
</mxfile>
